<svg width="1844" height="1772" viewBox="0 0 1844 1772" fill="none" xmlns="http://www.w3.org/2000/svg">
<mask id="mask0_81_1889" style="mask-type:alpha" maskUnits="userSpaceOnUse" x="0" y="0" width="1845" height="1773">
<line x1="209.836" y1="122.438" x2="209.836" y2="1649.56" stroke="black"/>
<line x1="1475.22" y1="0.482963" x2="0.129333" y2="395.732" stroke="black"/>
<line x1="515.261" y1="122.438" x2="515.261" y2="1649.56" stroke="black"/>
<line x1="1554.27" y1="295.501" x2="79.1793" y2="690.75" stroke="black"/>
<line x1="820.686" y1="122.438" x2="820.686" y2="1649.56" stroke="black"/>
<line x1="1633.32" y1="590.519" x2="158.229" y2="985.768" stroke="black"/>
<line x1="1126.11" y1="122.438" x2="1126.11" y2="1649.56" stroke="black"/>
<line x1="1712.37" y1="885.537" x2="237.279" y2="1280.79" stroke="black"/>
<line x1="1431.54" y1="122.438" x2="1431.54" y2="1649.56" stroke="black"/>
<line x1="1791.42" y1="1180.56" x2="316.329" y2="1575.8" stroke="black"/>
<line x1="311.644" y1="122.438" x2="311.644" y2="1649.56" stroke="black"/>
<line x1="1501.57" y1="98.8223" x2="26.4793" y2="494.072" stroke="black"/>
<line x1="617.07" y1="122.438" x2="617.07" y2="1649.56" stroke="black"/>
<line x1="1580.62" y1="393.84" x2="105.529" y2="789.09" stroke="black"/>
<line x1="922.495" y1="122.438" x2="922.495" y2="1649.56" stroke="black"/>
<line x1="1659.67" y1="688.858" x2="184.579" y2="1084.11" stroke="black"/>
<line x1="1227.92" y1="122.438" x2="1227.92" y2="1649.56" stroke="black"/>
<line x1="1738.72" y1="983.877" x2="263.629" y2="1379.13" stroke="black"/>
<line x1="1533.35" y1="122.438" x2="1533.34" y2="1649.56" stroke="black"/>
<line x1="1817.77" y1="1278.89" x2="342.679" y2="1674.14" stroke="black"/>
<line x1="413.453" y1="122.438" x2="413.453" y2="1649.56" stroke="black"/>
<line x1="1527.92" y1="197.162" x2="52.8293" y2="592.411" stroke="black"/>
<line x1="718.878" y1="122.438" x2="718.878" y2="1649.56" stroke="black"/>
<line x1="1606.97" y1="492.18" x2="131.879" y2="887.429" stroke="black"/>
<line x1="1024.3" y1="122.438" x2="1024.3" y2="1649.56" stroke="black"/>
<line x1="1686.02" y1="787.198" x2="210.929" y2="1182.45" stroke="black"/>
<line x1="1329.73" y1="122.438" x2="1329.73" y2="1649.56" stroke="black"/>
<line x1="1765.07" y1="1082.22" x2="289.979" y2="1477.47" stroke="black"/>
<line x1="1635.15" y1="122.438" x2="1635.15" y2="1649.56" stroke="black"/>
<line x1="1844.12" y1="1377.23" x2="369.029" y2="1772.48" stroke="black"/>
</mask>
<g mask="url(#mask0_81_1889)">
<rect x="158" y="123" width="1500" height="1500" fill="url(#paint0_radial_81_1889)"/>
</g>
<defs>
<radialGradient id="paint0_radial_81_1889" cx="0" cy="0" r="1" gradientUnits="userSpaceOnUse" gradientTransform="translate(908 873) rotate(90) scale(750)">
<stop offset="0.495" stop-color="#6A90F0"/>
<stop offset="1" stop-color="white" stop-opacity="0"/>
</radialGradient>
</defs>
</svg>
